<svg width="15" height="18" viewBox="0 0 15 18" fill="none" xmlns="http://www.w3.org/2000/svg">
<path d="M14 7.8999C14 12.9555 7.5 17.2888 7.5 17.2888C7.5 17.2888 1 12.9555 1 7.8999C1 6.176 1.68482 4.52269 2.90381 3.30371C4.12279 2.08472 5.77609 1.3999 7.5 1.3999C9.22391 1.3999 10.8772 2.08472 12.0962 3.30371C13.3152 4.52269 14 6.176 14 7.8999Z" stroke="white" stroke-linecap="round" stroke-linejoin="round"/>
<path d="M7.50016 10.0667C8.69678 10.0667 9.66683 9.09668 9.66683 7.90007C9.66683 6.70345 8.69678 5.7334 7.50016 5.7334C6.30355 5.7334 5.3335 6.70345 5.3335 7.90007C5.3335 9.09668 6.30355 10.0667 7.50016 10.0667Z" stroke="white" stroke-linecap="round" stroke-linejoin="round"/>
</svg>
