<svg width="560" height="349" viewBox="0 0 560 349" fill="none" xmlns="http://www.w3.org/2000/svg">
<g clip-path="url(#clip0_4954_193)">
<path d="M425.716 310.518C495.744 310.518 552.512 253.747 552.512 183.715C552.512 113.683 495.744 56.9116 425.716 56.9116C355.689 56.9116 298.921 113.683 298.921 183.715C298.921 253.747 355.689 310.518 425.716 310.518Z" fill="#F2F2F2"/>
<path d="M68.7921 96.8499C95.5348 96.8499 117.214 75.1693 117.214 48.425C117.214 21.6806 95.5348 0 68.7921 0C42.0494 0 20.3701 21.6806 20.3701 48.425C20.3701 75.1693 42.0494 96.8499 68.7921 96.8499Z" fill="#FF6584"/>
<path d="M155.652 260.097C225.679 260.097 282.447 203.325 282.447 133.293C282.447 63.2615 225.679 6.48969 155.652 6.48969C85.6247 6.48969 28.8564 63.2615 28.8564 133.293C28.8564 203.325 85.6247 260.097 155.652 260.097Z" fill="#F2F2F2"/>
<path d="M149.662 267.086C226.581 267.086 288.937 263.733 288.937 259.598C288.937 255.462 226.581 252.109 149.662 252.109C72.742 252.109 10.3862 255.462 10.3862 259.598C10.3862 263.733 72.742 267.086 149.662 267.086Z" fill="#3F3D56"/>
<path opacity="0.1" d="M121.707 265.02C179.328 265.02 226.039 262.708 226.039 259.856C226.039 257.004 179.328 254.691 121.707 254.691C64.0859 254.691 17.375 257.004 17.375 259.856C17.375 262.708 64.0859 265.02 121.707 265.02Z" fill="black"/>
<path d="M420.725 320.004C497.644 320.004 560 316.316 560 311.767C560 307.217 497.644 303.53 420.725 303.53C343.805 303.53 281.449 307.217 281.449 311.767C281.449 316.316 343.805 320.004 420.725 320.004Z" fill="#3F3D56"/>
<path opacity="0.1" d="M392.77 317.732C450.39 317.732 497.101 315.188 497.101 312.051C497.101 308.913 450.39 306.37 392.77 306.37C335.149 306.37 288.438 308.913 288.438 312.051C288.438 315.188 335.149 317.732 392.77 317.732Z" fill="black"/>
<path d="M200.129 297.04C249.215 297.04 289.007 295.028 289.007 292.547C289.007 290.065 249.215 288.054 200.129 288.054C151.043 288.054 111.25 290.065 111.25 292.547C111.25 295.028 151.043 297.04 200.129 297.04Z" fill="#3F3D56"/>
<path d="M42.8823 279.738C66.5656 279.738 85.7647 278.767 85.7647 277.57C85.7647 276.373 66.5656 275.402 42.8823 275.402C19.1991 275.402 0 276.373 0 277.57C0 278.767 19.1991 279.738 42.8823 279.738Z" fill="#3F3D56"/>
<path d="M475.696 349C519.775 349 555.507 347.194 555.507 344.965C555.507 342.737 519.775 340.931 475.696 340.931C431.618 340.931 395.885 342.737 395.885 344.965C395.885 347.194 431.618 349 475.696 349Z" fill="#3F3D56"/>
<path d="M467.15 216.165H307.407V311.018H467.15V216.165Z" fill="#3F3D56"/>
<path d="M358.824 300.534C378.675 300.534 394.766 284.442 394.766 264.59C394.766 244.739 378.675 228.646 358.824 228.646C338.974 228.646 322.882 244.739 322.882 264.59C322.882 284.442 338.974 300.534 358.824 300.534Z" fill="#6C63FF"/>
<path d="M417.729 231.142H405.749V243.123H417.729V231.142Z" fill="#6C63FF"/>
<path opacity="0.5" d="M432.705 231.142H420.724V243.123H432.705V231.142Z" fill="#6C63FF"/>
<path opacity="0.2" d="M447.681 231.142H435.7V243.123H447.681V231.142Z" fill="#6C63FF"/>
<path d="M417.729 246.119H405.749V258.1H417.729V246.119Z" fill="#2F2E41"/>
<path opacity="0.5" d="M432.705 246.119H420.724V258.1H432.705V246.119Z" fill="#2F2E41"/>
<path opacity="0.2" d="M447.681 246.119H435.7V258.1H447.681V246.119Z" fill="#2F2E41"/>
<path d="M417.729 261.095H405.749V273.077H417.729V261.095Z" fill="#FF6584"/>
<path opacity="0.5" d="M432.705 261.095H420.724V273.077H432.705V261.095Z" fill="#FF6584"/>
<path opacity="0.2" d="M447.681 261.095H435.7V273.077H447.681V261.095Z" fill="#FF6584"/>
<path opacity="0.5" d="M358.824 228.646V300.534C378.675 300.534 395.765 284.441 395.765 264.59C395.765 244.739 378.675 228.646 358.824 228.646Z" fill="#3F3D56"/>
<path d="M501.344 222.905C501.344 222.905 522.311 232.39 514.823 243.373C507.335 254.356 484.871 275.323 484.372 279.816C483.873 284.309 480.877 288.303 480.877 288.303C480.877 288.303 470.894 277.819 471.892 276.821C472.89 275.823 482.874 266.337 483.373 263.841C483.873 261.345 498.848 241.875 498.848 241.875L485.37 229.894L501.344 222.905Z" fill="#FFB9B9"/>
<path opacity="0.1" d="M501.344 222.905C501.344 222.905 522.311 232.39 514.823 243.373C507.335 254.356 484.871 275.323 484.372 279.816C483.873 284.309 480.877 288.303 480.877 288.303C480.877 288.303 470.894 277.819 471.892 276.821C472.89 275.823 482.874 266.337 483.373 263.841C483.873 261.345 498.848 241.875 498.848 241.875L485.37 229.894L501.344 222.905Z" fill="black"/>
<path d="M474.887 243.872C474.887 243.872 489.364 249.863 488.365 259.348C487.367 268.833 505.837 295.791 505.837 295.791C505.837 295.791 507.834 302.281 507.335 304.278C506.836 306.275 520.314 305.776 520.314 305.776V301.283C520.314 301.283 509.831 283.311 508.832 278.319C507.834 273.326 501.844 253.856 501.844 253.856C501.844 253.856 499.847 236.384 489.863 236.384C486.957 236.384 484.091 237.06 481.491 238.36C478.892 239.66 476.631 241.547 474.887 243.872Z" fill="#FFB9B9"/>
<path d="M475.636 198.692C475.636 198.692 505.588 223.154 504.589 225.151C503.591 227.148 489.114 234.636 486.619 235.136C484.123 235.635 466.462 198.692 466.462 198.692H475.636Z" fill="#2F2E41"/>
<path opacity="0.1" d="M475.636 198.692C475.636 198.692 505.588 223.154 504.589 225.151C503.591 227.148 489.114 234.636 486.619 235.136C484.123 235.635 466.462 198.692 466.462 198.692H475.636Z" fill="black"/>
<path d="M443.188 203.684C443.188 203.684 440.193 217.164 448.18 222.655C456.167 228.146 469.646 249.613 471.143 249.613C472.641 249.613 494.106 238.131 493.108 236.134C492.109 234.137 481.127 216.664 481.127 216.664L477.633 198.193C477.633 198.193 447.182 197.194 443.188 203.684Z" fill="#2F2E41"/>
<path d="M475.636 159.752L480.129 188.708L488.116 209.176C488.116 209.176 500.097 221.656 493.108 222.655C486.119 223.653 482.126 209.176 482.126 209.176L475.636 197.194V159.752Z" fill="#FFB9B9"/>
<path opacity="0.1" d="M475.636 159.752L480.129 188.708L488.116 209.176C488.116 209.176 500.097 221.656 493.108 222.655C486.119 223.653 482.126 209.176 482.126 209.176L475.636 197.194V159.752Z" fill="black"/>
<path d="M458.913 127.552C458.913 127.552 458.913 138.036 455.419 139.035C451.924 140.033 469.396 153.512 469.396 153.512C469.396 153.512 467.399 136.039 474.388 131.546L458.913 127.552Z" fill="#FFB9B9"/>
<path opacity="0.1" d="M458.913 127.552C458.913 127.552 458.913 138.036 455.419 139.035C451.924 140.033 469.396 153.512 469.396 153.512C469.396 153.512 467.399 136.039 474.388 131.546L458.913 127.552Z" fill="black"/>
<path d="M466.9 136.039C473.241 136.039 478.382 130.898 478.382 124.557C478.382 118.216 473.241 113.075 466.9 113.075C460.559 113.075 455.419 118.216 455.419 124.557C455.419 130.898 460.559 136.039 466.9 136.039Z" fill="#FFB9B9"/>
<path d="M467.399 148.52C467.399 148.52 456.916 135.54 455.419 136.039C453.921 136.538 442.939 147.521 441.94 151.016C440.942 154.511 438.945 179.472 440.443 184.464C441.94 189.456 441.94 202.436 441.441 203.435C440.942 204.433 437.947 206.929 440.942 206.929C443.937 206.929 454.42 199.441 461.409 200.939C468.398 202.436 477.882 200.439 478.382 199.441C478.881 198.442 477.882 172.483 478.382 170.486C478.881 168.489 477.383 158.504 476.884 156.507C476.385 154.511 476.385 146.523 471.393 144.526L469.264 144.316L469.145 149.254L467.399 148.52Z" fill="#6C63FF"/>
<path d="M445.435 174.48C445.435 174.48 446.433 189.956 453.921 196.446C461.409 202.936 477.383 213.918 478.382 215.915C479.38 217.912 488.865 228.396 490.861 223.903C491.441 222.502 491.581 220.958 491.262 219.476C490.972 218.003 490.384 216.605 489.533 215.368C488.683 214.131 487.589 213.08 486.318 212.281L481.876 209.425L459.911 186.461L458.913 174.48H445.435Z" fill="#FFB9B9"/>
<path d="M474.139 275.074C474.139 275.074 468.398 273.826 466.401 277.32C464.404 280.815 468.398 290.3 468.398 290.3C468.398 290.3 479.879 314.263 481.876 311.268C483.873 308.272 480.378 297.289 480.378 297.289C480.378 297.289 485.37 286.306 483.374 285.807C481.377 285.308 474.139 281.064 474.139 275.074Z" fill="#2F2E41"/>
<path d="M509.332 303.779C509.332 303.779 506.337 302.282 505.837 303.779C505.338 305.277 502.343 312.765 505.837 313.764C509.332 314.762 543.776 315.761 542.778 313.764C541.779 311.767 536.288 309.271 532.794 308.272C529.3 307.274 520.314 299.785 520.314 299.785C520.314 299.785 515.322 306.275 509.332 303.779Z" fill="#2F2E41"/>
<path d="M478.466 115.444C478.251 114.719 477.776 114.1 477.133 113.703C477.166 112.927 477.071 112.151 476.851 111.406C476.117 109.237 474.38 109.361 472.74 108.402C472.029 107.986 472.072 107.619 471.702 106.935C471.217 106.04 470.49 105.298 469.604 104.795C468.552 104.124 467.442 103.434 466.197 103.349C463.582 103.171 461.577 105.631 459.077 106.421C457.976 106.769 456.792 106.783 455.684 107.112C454.577 107.441 453.472 108.226 453.306 109.37C453.23 109.898 453.365 110.44 453.287 110.967C453.134 112.017 452.213 112.751 451.597 113.614C450.235 115.522 450.391 118.218 451.48 120.294C451.71 120.724 451.973 121.135 452.266 121.524C452.357 122.505 452.639 123.459 453.095 124.332C454.185 126.408 456.06 127.96 458.018 129.249C457.858 128.56 457.761 127.858 457.728 127.152C457.7 126.917 457.731 126.678 457.817 126.457C458.035 126.001 458.611 125.88 459.051 125.63C459.961 125.113 460.318 123.969 460.344 122.922C460.37 121.875 460.149 120.827 460.258 119.786C460.262 119.547 460.317 119.311 460.418 119.094C460.519 118.877 460.664 118.683 460.845 118.526C461.181 118.334 461.564 118.242 461.951 118.262C463.815 118.186 465.764 118.152 467.409 117.27C467.939 116.917 468.509 116.629 469.107 116.41C470.505 116.046 471.934 117.026 472.74 118.225C473.545 119.424 473.947 120.851 474.69 122.09C475.433 123.329 476.718 124.433 478.155 124.287C478.236 124.287 478.316 124.27 478.39 124.237C478.464 124.204 478.53 124.156 478.584 124.096C478.646 123.984 478.673 123.857 478.663 123.73L478.743 118.236C478.81 117.296 478.716 116.352 478.466 115.444Z" fill="#2F2E41"/>
<path d="M449.927 149.019C449.927 149.019 460.91 154.011 460.411 164.495C459.911 174.979 463.406 175.977 454.919 176.976C446.433 177.974 444.436 176.976 443.937 177.974C443.438 178.973 440.443 155.01 442.439 152.514C444.436 150.017 449.927 149.019 449.927 149.019Z" fill="#6C63FF"/>
<path d="M229.034 64.4002C237.856 64.4002 245.008 57.2478 245.008 48.4249C245.008 39.6021 237.856 32.4497 229.034 32.4497C220.211 32.4497 213.059 39.6021 213.059 48.4249C213.059 57.2478 220.211 64.4002 229.034 64.4002Z" fill="#2F2E41"/>
<path d="M239.766 223.404L230.781 247.866C230.781 247.866 223.293 253.857 227.786 255.853C232.279 257.85 241.264 253.857 241.264 253.857L248.253 235.884L247.254 223.404H239.766Z" fill="#2F2E41"/>
<path opacity="0.1" d="M239.766 223.404L230.781 247.866C230.781 247.866 223.293 253.857 227.786 255.853C232.279 257.85 241.264 253.857 241.264 253.857L248.253 235.884L247.254 223.404H239.766Z" fill="black"/>
<path d="M240.515 78.3784L248.003 79.3769C248.003 79.3769 251.498 106.834 250 108.831C248.502 110.828 241.014 118.816 238.019 116.819C235.024 114.822 240.515 78.3784 240.515 78.3784Z" fill="#575A89"/>
<path d="M168.881 128.551C168.881 128.551 158.398 133.044 156.401 133.543C154.404 134.042 151.409 139.035 154.903 140.033C158.398 141.031 171.876 131.047 171.876 131.047L168.881 128.551Z" fill="#A0616A"/>
<path d="M243.261 233.388L248.752 253.857C248.752 253.857 249.251 261.345 251.747 261.844C254.243 262.343 261.731 259.348 261.731 258.35C261.731 257.351 258.736 249.364 258.736 249.364C258.736 249.364 258.736 243.373 255.741 240.877C252.745 238.381 250.047 230.019 250.047 230.019L243.261 233.388Z" fill="#2F2E41"/>
<path d="M250.249 186.461C251.258 188.812 251.133 205.871 250.03 217.223C249.496 222.74 248.732 226.908 247.753 227.398L240.6 225.61L237.77 224.901L237.695 218.691L237.27 184.464L228.784 149.019V140.033L250.249 142.03L253.654 147.377L253.744 147.521C253.744 147.521 248.752 182.966 250.249 186.461Z" fill="#2F2E41"/>
<path opacity="0.1" d="M245.757 197.444C246.825 199.046 248.607 208.642 250.03 217.223C249.496 222.74 248.732 226.908 247.753 227.398L240.6 225.61C240.49 225.381 240.38 225.141 240.266 224.901C239.352 222.984 238.493 220.868 237.695 218.691L237.27 184.464L228.784 149.019V140.033L250.249 142.03L253.654 147.377L233.776 146.024L238.269 165.493L243.76 185.962C243.76 185.962 243.76 194.449 245.757 197.444Z" fill="black"/>
<path d="M210.314 120.064C210.314 120.064 203.325 135.54 213.309 157.007C219.487 170.366 224.985 184.029 229.783 197.943C229.783 197.943 233.277 214.418 238.269 224.901C243.261 235.385 242.262 235.884 242.262 235.884L250.25 231.391C250.25 231.391 245.757 200.439 243.76 197.444C241.763 194.449 241.763 185.962 241.763 185.962L236.272 165.494L231.779 146.024L253.744 147.521C253.744 147.521 253.744 119.065 243.76 113.574L210.314 120.064Z" fill="#2F2E41"/>
<path d="M218.551 55.9133C218.551 55.9133 218.551 63.901 216.055 64.4002C213.559 64.8994 208.567 64.8994 207.069 67.3955C205.572 69.8917 218.551 102.841 218.551 102.841L232.029 94.3538L236.522 71.8886C236.522 71.8886 230.032 67.8948 230.032 65.8979V56.9118L218.551 55.9133Z" fill="#A0616A"/>
<path opacity="0.1" d="M218.551 55.9133C218.551 55.9133 218.551 63.901 216.055 64.4002C213.559 64.8994 208.567 64.8994 207.069 67.3955C205.572 69.8917 218.551 102.841 218.551 102.841L232.029 94.3538L236.522 71.8886C236.522 71.8886 230.032 67.8948 230.032 65.8979V56.9118L218.551 55.9133Z" fill="black"/>
<path d="M226.288 64.6498C232.905 64.6498 238.269 59.2855 238.269 52.6684C238.269 46.0512 232.905 40.687 226.288 40.687C219.671 40.687 214.307 46.0512 214.307 52.6684C214.307 59.2855 219.671 64.6498 226.288 64.6498Z" fill="#A0616A"/>
<path d="M220.048 92.8561C220.048 92.8561 215.555 64.4002 214.557 64.4002C213.559 64.4002 199.581 67.3956 198.583 67.8948C197.584 68.394 194.09 72.8871 194.09 72.8871L201.079 92.8561C201.079 92.8561 204.074 106.834 206.071 109.331C208.067 111.827 212.061 118.816 210.064 119.814C208.067 120.813 206.071 122.31 208.067 122.31C210.064 122.31 226.538 119.315 227.536 120.813C228.534 122.31 245.008 115.321 245.008 114.822C245.008 114.323 243.011 90.8592 243.011 90.8592L248.003 79.377L233.027 68.8932L220.048 92.8561Z" fill="#575A89"/>
<path d="M199.082 70.3909L194.09 72.8871C194.09 72.8871 180.113 104.838 179.114 105.337C178.116 105.836 173.124 115.321 172.625 117.318C172.125 119.315 171.127 125.805 169.63 126.803C168.826 127.349 167.993 127.849 167.134 128.301C167.134 128.301 170.129 133.293 171.626 133.293C173.124 133.293 178.116 126.304 178.116 126.304C178.116 126.304 189.098 133.293 192.093 127.802C195.088 122.31 202.576 87.3646 202.576 87.3646L199.082 70.3909Z" fill="#575A89"/>
<path d="M238.269 85.6174C238.269 85.6174 231.28 68.6437 227.287 70.6406C223.293 72.6375 230.282 84.619 234.775 86.6159L238.269 85.6174Z" fill="#A0616A"/>
<path opacity="0.1" d="M231.28 86.1166L238.284 84.5331L239.766 92.1073C239.766 92.1073 246.256 103.589 244.758 108.582C243.261 113.574 234.275 121.562 231.28 117.069C228.285 112.576 225.789 105.586 227.786 101.593C229.782 97.5988 232.778 88.1135 231.28 86.1166Z" fill="black"/>
<path d="M232.778 85.1182L239.782 83.5347L241.264 91.1089C241.264 91.1089 247.753 102.591 246.256 107.583C244.758 112.576 235.773 120.563 232.778 116.07C229.782 111.577 227.286 104.588 229.283 100.594C231.28 96.6004 234.275 87.1151 232.778 85.1182Z" fill="#575A89"/>
<path d="M240.382 50.2627C241.727 47.3914 237.96 42.7882 231.968 39.981C225.976 37.1739 220.029 37.2259 218.684 40.0972C217.339 42.9685 221.106 47.5717 227.098 50.3788C233.089 53.186 239.037 53.134 240.382 50.2627Z" fill="#2F2E41"/>
<path d="M238.518 41.9351C242.378 41.9351 245.507 38.806 245.507 34.946C245.507 31.0859 242.378 27.9568 238.518 27.9568C234.659 27.9568 231.53 31.0859 231.53 34.946C231.53 38.806 234.659 41.9351 238.518 41.9351Z" fill="#2F2E41"/>
<path d="M232.029 32.4497C232.029 30.7259 232.666 29.063 233.818 27.7805C234.97 26.498 236.555 25.6865 238.269 25.5018C237.293 25.3952 236.305 25.4955 235.371 25.796C234.436 26.0966 233.575 26.5907 232.844 27.2462C232.113 27.9017 231.529 28.7039 231.128 29.6004C230.728 30.497 230.521 31.4678 230.521 32.4497C230.521 33.4315 230.728 34.4024 231.128 35.2989C231.529 36.1955 232.113 36.9976 232.844 37.6531C233.575 38.3086 234.436 38.8028 235.371 39.1033C236.305 39.4039 237.293 39.5041 238.269 39.3975C236.555 39.2129 234.97 38.4013 233.818 37.1189C232.666 35.8364 232.029 34.1735 232.029 32.4497Z" fill="#2F2E41"/>
<path d="M207.069 138.286H32.3508V259.598H207.069V138.286Z" fill="#3F3D56"/>
<path d="M69.2912 150.267H46.3282V173.232H69.2912V150.267Z" fill="#F2F2F2"/>
<path d="M69.2912 187.709H46.3282V210.673H69.2912V187.709Z" fill="#6C63FF"/>
<path d="M69.2912 225.151H46.3282V248.115H69.2912V225.151Z" fill="#F2F2F2"/>
<path d="M189.597 157.506H80.2736V159.503H189.597V157.506Z" fill="#F2F2F2"/>
<path d="M114.219 163.996H80.2736V165.993H114.219V163.996Z" fill="#F2F2F2"/>
<path d="M189.597 194.948H80.2736V196.945H189.597V194.948Z" fill="#F2F2F2"/>
<path d="M114.219 201.438H80.2736V203.435H114.219V201.438Z" fill="#F2F2F2"/>
<path d="M189.597 232.39H80.2736V234.387H189.597V232.39Z" fill="#F2F2F2"/>
<path d="M114.219 238.88H80.2736V240.877H114.219V238.88Z" fill="#F2F2F2"/>
<path d="M494.106 333.949C494.106 344.111 488.066 347.659 480.614 347.659C480.441 347.659 480.269 347.657 480.097 347.653C479.752 347.646 479.409 347.629 479.072 347.606C472.346 347.13 467.122 343.4 467.122 333.949C467.122 324.17 479.617 311.829 480.558 310.914L480.559 310.913C480.595 310.877 480.614 310.859 480.614 310.859C480.614 310.859 494.106 323.788 494.106 333.949Z" fill="#6C63FF"/>
<path d="M480.122 346.104L485.057 339.209L480.11 346.862L480.097 347.653C479.752 347.646 479.409 347.63 479.072 347.606L479.603 337.44L479.599 337.36L479.608 337.347L479.659 336.385L474.699 328.714L479.674 335.665L479.686 335.869L480.087 328.188L475.842 320.261L480.14 326.84L480.558 310.914L480.559 310.859V310.913L480.49 323.471L484.717 318.492L480.472 324.553L480.361 331.43L484.308 324.83L480.344 332.442L480.282 336.266L486.011 327.079L480.26 337.6L480.122 346.104Z" fill="#3F3D56"/>
<path d="M56.3122 264.556C56.3122 274.719 50.272 278.267 42.8199 278.267C42.6472 278.267 42.4746 278.264 42.3033 278.261C41.958 278.253 41.6153 278.237 41.2775 278.213C34.5518 277.738 29.3275 274.007 29.3275 264.556C29.3275 254.778 41.8227 242.437 42.764 241.522L42.7652 241.52C42.8012 241.484 42.8199 241.467 42.8199 241.467C42.8199 241.467 56.3122 254.395 56.3122 264.556Z" fill="#6C63FF"/>
<path d="M42.328 276.712L47.263 269.817L42.3156 277.47L42.3032 278.261C41.958 278.253 41.6152 278.237 41.2775 278.213L41.8089 268.047L41.8052 267.968L41.8139 267.954L41.8648 266.993L36.905 259.322L41.8797 266.273L41.8922 266.476L42.2933 258.795L38.0475 250.868L42.3454 257.448L42.7639 241.522L42.7652 241.467V241.52L42.6956 254.079L46.9228 249.1L42.6782 255.16L42.5665 262.038L46.5142 255.437L42.5503 263.05L42.4882 266.874L48.2167 257.686L42.4659 268.208L42.328 276.712Z" fill="#3F3D56"/>
</g>
<defs>
<clipPath id="clip0_4954_193">
<rect width="560" height="349" fill="white"/>
</clipPath>
</defs>
</svg>
