<svg width="557" height="402" viewBox="0 0 557 402" fill="none" xmlns="http://www.w3.org/2000/svg">
<g clip-path="url(#clip0_4954_276)">
<path d="M200.018 110.677C194.839 116.033 188.601 120.261 181.699 123.096C174.796 125.931 167.379 127.311 159.914 127.149C152.449 126.987 145.099 125.286 138.327 122.154C131.556 119.021 125.51 114.525 120.57 108.95L0 222.591L169.545 400.95L331.153 248.629L200.018 110.677Z" fill="#EDECEC"/>
<path d="M160.993 115.927C167.356 115.935 173.655 114.66 179.51 112.18C185.366 109.701 190.657 106.067 195.065 101.498L161.444 66.1294L125.523 99.9858C129.957 105.002 135.415 109.018 141.531 111.767C147.648 114.516 154.283 115.934 160.993 115.927Z" fill="#EDECEC"/>
<path d="M425.659 167.652C425.671 178.761 423.482 189.763 419.217 200.028C414.953 210.294 408.698 219.621 400.809 227.476C392.921 235.331 383.554 241.56 373.245 245.806C362.935 250.052 351.887 252.231 340.73 252.22C340.247 252.22 339.763 252.215 339.279 252.205C337.241 252.174 335.228 252.072 333.226 251.897C316.812 250.448 301.176 244.276 288.223 234.133C275.271 223.99 265.561 210.314 260.278 194.772C254.995 179.23 254.366 162.493 258.468 146.601C262.57 130.71 271.227 116.349 283.382 105.271C295.537 94.1924 310.666 86.8741 326.926 84.2079C343.185 81.5417 359.872 83.6427 374.953 90.255C390.034 96.8672 402.858 107.705 411.861 121.448C420.864 135.19 425.658 151.244 425.659 167.652Z" fill="#6C63FF"/>
<path opacity="0.1" d="M389.948 137.049C395.272 127.7 398.747 117.421 400.185 106.769C388.889 95.9254 374.797 88.4097 359.473 85.0556C344.148 81.7016 328.19 82.6403 313.369 87.7677C298.547 92.8951 285.442 102.011 275.507 114.103C265.572 126.196 259.195 140.793 257.084 156.274C271.033 169.701 289.192 177.947 308.519 179.63C310.522 179.804 312.534 179.907 314.572 179.938C315.056 179.948 315.54 179.953 316.024 179.953C331.059 179.969 345.829 176.004 358.819 168.465C371.808 160.926 382.552 150.083 389.948 137.049Z" fill="black"/>
<path d="M378.305 250.17H241.904V401.88H378.305V250.17Z" fill="#2F2E41"/>
<path opacity="0.1" d="M421.989 199.224C416.71 211.565 408.562 222.48 398.216 231.07C387.87 239.66 375.623 245.679 362.483 248.633H381.393V400.343H255.585L326.19 278.57L342.367 250.667L343.546 248.633L397.092 156.284L421.989 199.224Z" fill="black"/>
<path d="M414.593 157.309L485.496 279.595L556.398 401.88H414.593H272.787L343.69 279.595L414.593 157.309Z" fill="#3F3D56"/>
<path d="M556.398 400.855H19.0303V401.88H556.398V400.855Z" fill="#2F2E41"/>
<path d="M88.2771 377.653L87.3378 385.449L82.014 387.943L76.0638 386.072L71.9929 387.943L70.7406 380.772L77.9431 372.664L88.2771 377.653Z" fill="#9F616A"/>
<path d="M84.5192 383.578C84.5192 383.578 89.3743 377.942 89.452 380.76C89.5296 383.578 100.177 393.244 100.177 393.244C100.177 393.244 116.774 398.233 103.935 401.352C91.0954 404.47 62.9115 395.427 61.972 393.556C61.0326 391.685 69.8009 377.341 70.7404 378.589C71.6798 379.836 76.3772 384.201 84.5192 383.578Z" fill="#2F2E41"/>
<path d="M96.419 290.966C96.419 290.966 98.2979 305.622 96.419 307.804C94.5401 309.987 95.4795 314.353 96.419 314.976C97.3585 315.6 95.1664 318.095 93.6006 319.342C92.0348 320.589 89.8428 326.202 89.8428 326.202C89.8428 326.202 81.3876 348.342 81.3876 350.524C81.3876 352.707 77.6298 357.384 77.9429 358.944C78.2561 360.503 75.7508 365.492 76.064 366.427C76.3771 367.363 71.993 375.782 73.2456 377.029C74.4982 378.277 91.7217 382.642 90.7822 379.836C89.8428 377.029 89.2164 373.599 89.8428 373.599C90.4691 373.599 93.2875 370.169 92.6611 368.922C92.0348 367.675 111.45 334.933 111.45 334.933L96.419 290.966Z" fill="#2F2E41"/>
<path opacity="0.1" d="M84.5192 383.578C84.5192 383.578 89.3743 377.942 89.452 380.76C89.5296 383.578 100.177 393.244 100.177 393.244C100.177 393.244 116.774 398.233 103.935 401.352C91.0954 404.47 62.9115 395.427 61.972 393.556C61.0326 391.685 69.8009 377.341 70.7404 378.589C71.6798 379.836 76.3772 384.201 84.5192 383.578Z" fill="black"/>
<path opacity="0.1" d="M96.419 290.966C96.419 290.966 98.2979 305.622 96.419 307.804C94.5401 309.987 95.4795 314.353 96.419 314.976C97.3585 315.6 95.1664 318.095 93.6006 319.342C92.0348 320.589 89.8428 326.202 89.8428 326.202C89.8428 326.202 81.3876 348.342 81.3876 350.524C81.3876 352.707 77.6298 357.384 77.9429 358.944C78.2561 360.503 75.7508 365.492 76.064 366.427C76.3771 367.363 71.993 375.782 73.2456 377.029C74.4982 378.277 91.7217 382.642 90.7822 379.836C89.8428 377.029 89.2164 373.599 89.8428 373.599C90.4691 373.599 93.2875 370.169 92.6611 368.922C92.0348 367.675 111.45 334.933 111.45 334.933L96.419 290.966Z" fill="black"/>
<path d="M128.361 373.782L131.805 382.513L130.24 394.674L120.219 394.051L114.582 389.061V378.459L128.361 373.782Z" fill="#9F616A"/>
<path d="M126.482 384.384C126.482 384.384 129.927 373.158 131.805 376.276C132.996 378.279 134.042 380.363 134.937 382.513C134.937 382.513 150.282 392.491 154.353 392.491C158.424 392.491 162.181 397.481 156.858 399.352C151.534 401.222 110.824 403.717 110.198 399.352C109.572 394.986 110.824 380.954 112.703 382.513C114.582 384.072 124.29 387.502 126.482 384.384Z" fill="#2F2E41"/>
<path d="M134.311 246.246C134.311 246.246 148.114 255.586 148.74 256.833C149.366 258.08 157.375 261.915 150.799 265.034C144.223 268.152 126.795 248.429 126.795 248.429L134.311 246.246Z" fill="#9F616A"/>
<path d="M127.421 228.16C127.421 228.16 137.442 247.493 135.563 248.117C133.684 248.74 126.169 252.482 126.169 252.482L122.724 232.837L127.421 228.16Z" fill="#575A88"/>
<path opacity="0.1" d="M127.421 228.16C127.421 228.16 137.442 247.493 135.563 248.117C133.684 248.74 126.169 252.482 126.169 252.482L122.724 232.837L127.421 228.16Z" fill="black"/>
<path d="M126.795 244.375C126.795 244.375 128.987 260.59 128.048 264.02C127.108 267.45 128.674 318.901 127.421 321.707C126.169 324.514 125.229 342.599 125.229 344.782C125.229 346.965 127.734 364.739 128.361 366.298C128.987 367.857 130.866 373.158 129.926 375.653C128.987 378.147 116.148 384.384 114.269 382.201C112.39 380.018 113.956 373.158 112.39 372.846C110.824 372.535 108.945 357.879 108.945 357.879L98.6111 300.503C98.6111 300.503 79.1955 252.482 83.5797 247.805C87.9638 243.128 126.795 244.375 126.795 244.375Z" fill="#2F2E41"/>
<path d="M115.208 133.677C123.683 133.677 130.553 126.836 130.553 118.398C130.553 109.959 123.683 103.118 115.208 103.118C106.734 103.118 99.8638 109.959 99.8638 118.398C99.8638 126.836 106.734 133.677 115.208 133.677Z" fill="#9F616A"/>
<path d="M120.845 130.871C120.845 130.871 115.835 143.967 116.461 146.774C117.087 149.58 101.743 141.785 101.743 141.785C101.743 141.785 102.682 126.505 101.743 122.451C100.803 118.398 120.845 130.871 120.845 130.871Z" fill="#9F616A"/>
<path d="M78.7697 216.189C78.8385 218.805 78.8824 220.364 78.8824 220.364C78.8824 220.364 77.9429 234.708 79.5087 239.386C81.0745 244.063 81.0745 247.493 82.0139 250.611C82.2895 251.519 86.038 252.005 91.302 252.22C96.1309 252.417 102.234 252.389 108.093 252.255C117.795 252.03 126.839 251.512 128.361 251.235C131.805 250.611 127.734 245.31 128.987 242.504C130.24 239.697 126.795 203.838 126.795 203.838C126.795 203.838 127.108 183.569 125.542 175.773C123.977 167.978 118.027 155.505 116.774 153.946C115.521 152.387 116.461 151.451 119.279 149.58C122.098 147.709 119.279 140.537 119.279 140.537C113.956 136.172 100.49 135.548 100.49 135.548C100.49 135.548 79.8218 156.752 78.5692 161.118C77.8114 163.756 78.0838 184.829 78.4158 201.1C78.5441 207.221 78.6789 212.665 78.7697 216.189Z" fill="#575A88"/>
<path d="M105.187 254.977C105.187 254.977 117.087 279.299 107.693 280.858C98.2979 282.417 93.6006 258.719 93.6006 258.719L105.187 254.977Z" fill="#9F616A"/>
<path d="M129.556 110.653C130.099 108.032 128.087 105.583 125.969 103.937C121.356 100.374 115.68 98.4465 109.842 98.4603C105.735 98.4826 101.497 99.5643 98.3928 102.242C94.7724 105.365 93.1209 110.374 93.4248 115.134C93.7288 119.894 95.8079 124.409 98.6122 128.276C99.9581 130.132 102.12 132.053 104.27 131.244C105.112 130.852 105.834 130.244 106.363 129.484C107.743 127.779 108.945 125.94 109.951 123.993C110.721 122.504 111.388 120.934 112.478 119.659C113.569 118.384 115.209 117.425 116.875 117.654C118.252 117.843 119.602 118.808 120.915 118.355C122.376 117.85 122.729 115.99 122.845 114.455C122.972 112.773 122.882 110.824 123.351 109.233C123.864 109.506 129.304 111.909 129.556 110.653Z" fill="#2F2E41"/>
<path opacity="0.1" d="M78.7697 216.189C82.277 228.784 90.3219 250.009 90.7822 250.923C90.8981 251.157 91.0797 251.615 91.302 252.22C96.1309 252.417 102.234 252.389 108.093 252.255C107.185 249.891 106.127 247.608 106.127 246.869C106.127 245.31 98.611 205.085 98.611 205.085C98.611 205.085 104.561 187.311 109.885 172.343C115.208 157.376 94.0703 160.338 94.0703 160.338C82.7968 157.532 80.7613 162.365 80.7613 162.365C80.7613 162.365 79.7686 188.652 78.4158 201.1C78.0681 204.29 77.6986 206.569 77.3166 207.268C76.8155 208.181 77.492 211.618 78.7697 216.189Z" fill="black"/>
<path d="M98.6111 150.204C98.6111 150.204 113.016 156.129 107.693 171.096C102.369 186.064 96.4191 203.838 96.4191 203.838C96.4191 203.838 103.935 244.063 103.935 245.622C103.935 247.181 108.632 255.6 106.753 257.16C104.874 258.719 92.3481 261.837 92.0349 260.278C91.7217 258.719 89.2165 250.923 88.5902 249.676C87.9639 248.429 73.2456 209.451 75.1246 206.02C76.5072 203.496 77.7203 180.371 78.2647 168.332C78.3905 164.897 79.4122 161.554 81.2294 158.632C83.0465 155.71 85.5965 153.309 88.6283 151.666C91.5479 150.125 94.9472 149.292 98.6111 150.204Z" fill="#575A88"/>
<path d="M156.461 241.457H137.931V259.908H156.461V241.457Z" fill="#6C63FF"/>
<path d="M147.196 241.457C150.323 241.457 152.858 238.933 152.858 235.819C152.858 232.705 150.323 230.181 147.196 230.181C144.069 230.181 141.534 232.705 141.534 235.819C141.534 238.933 144.069 241.457 147.196 241.457Z" fill="#3F3D56"/>
<path d="M366.028 56.5481C381.468 56.5481 393.985 44.0844 393.985 28.7097C393.985 13.335 381.468 0.871338 366.028 0.871338C350.587 0.871338 338.071 13.335 338.071 28.7097C338.071 44.0844 350.587 56.5481 366.028 56.5481Z" fill="#FF6584"/>
<path d="M365.952 47.7244C365.952 68.7284 353.412 76.0622 337.943 76.0622C322.475 76.0622 309.935 68.7284 309.935 47.7244C309.935 26.7204 337.943 0 337.943 0C337.943 0 365.952 26.7204 365.952 47.7244Z" fill="#EDECEC"/>
<path d="M336.923 72.8491L337.21 55.2707L349.148 33.5238L337.255 52.5132L337.384 44.6095L345.611 28.8757L337.418 42.5178L337.65 28.3021L346.46 15.7758L337.686 26.0665L337.831 0L336.92 34.5074L336.996 33.0836L328.038 19.4312L336.852 35.8164L336.017 51.6932L335.992 51.2714L325.666 36.904L335.961 52.7603L335.856 54.7458L335.838 54.7756L335.847 54.9386L333.729 95.2186H336.558L336.898 74.4133L347.167 58.596L336.923 72.8491Z" fill="#3F3D56"/>
<path d="M433.44 79.1187C426.748 99.0375 412.519 102.031 397.85 97.1436C383.18 92.2565 373.625 81.3399 380.318 61.4211C387.01 41.5023 422.086 25.0114 422.086 25.0114C422.086 25.0114 440.133 59.2 433.44 79.1187Z" fill="#EDECEC"/>
<path d="M397.906 93.7743L403.779 77.1948L422.029 60.3427L404.7 74.5937L407.341 67.1389L420.157 54.8176L408.04 65.1662L412.79 51.7583L425.136 42.6628L413.536 49.6497L421.979 24.9758L410.121 57.4126L410.645 56.0861L406.501 40.3093L409.638 58.6324L403.788 73.4252L403.899 73.0177L398.684 56.1302L403.394 74.4195L402.663 76.2692L402.636 76.2918L402.592 76.4491L387.749 113.979L390.432 114.873L397.384 95.2494L412.163 83.4939L397.906 93.7743Z" fill="#3F3D56"/>
<path d="M294.415 63.0913C302.001 82.6899 292.949 94.0237 278.516 99.5632C264.082 105.103 249.732 102.75 242.146 83.1515C234.56 63.5529 251.044 28.5901 251.044 28.5901C251.044 28.5901 286.829 43.4926 294.415 63.0913Z" fill="#EDECEC"/>
<path d="M276.403 96.9305L270.322 80.4253L273.607 55.8585L269.368 77.8365L266.633 70.415L268.628 52.7874L265.91 68.451L260.992 55.1036L264.689 40.2606L260.219 53.0047L250.939 28.6301L262.553 61.155L262.108 59.7999L248.819 50.2683L262.961 62.401L267.916 77.5141L267.741 77.1297L252.917 67.4218L268.25 78.53L268.87 80.4202L268.863 80.4545L268.93 80.6037L281.502 118.947L284.142 117.934L276.944 98.3989L280.814 79.9625L276.403 96.9305Z" fill="#3F3D56"/>
<path d="M234.931 229.617C233.196 232.374 230.944 232.309 228.914 231.042C226.884 229.775 225.844 227.785 227.579 225.028C229.315 222.272 235.199 221.059 235.199 221.059C235.199 221.059 236.667 226.861 234.931 229.617Z" fill="#6C63FF"/>
<path d="M441.916 147.001C442.237 150.238 440.416 151.559 438.031 151.794C435.647 152.028 433.602 151.088 433.281 147.85C432.96 144.612 436.868 140.069 436.868 140.069C436.868 140.069 441.594 143.763 441.916 147.001Z" fill="#6C63FF"/>
<path d="M225.699 170.908C223.963 173.665 221.712 173.6 219.682 172.333C217.651 171.066 216.612 169.076 218.347 166.319C220.083 163.562 225.966 162.35 225.966 162.35C225.966 162.35 227.434 168.152 225.699 170.908Z" fill="#6C63FF"/>
</g>
<defs>
<clipPath id="clip0_4954_276">
<rect width="556.398" height="402" fill="white"/>
</clipPath>
</defs>
</svg>
